<svg width="13" height="13" viewBox="0 0 13 13" fill="none" xmlns="http://www.w3.org/2000/svg">
<g clip-path="url(#clip0)">
<path d="M12.2345 4.6846H0.77192C0.628116 4.6846 0.511398 4.80132 0.511398 4.94512V11.1974C0.511398 11.9154 1.09548 12.5 1.81396 12.5H11.1924C11.9109 12.5 12.495 11.9154 12.495 11.1974V4.94512C12.495 4.80129 12.3783 4.6846 12.2345 4.6846ZM11.974 11.1974C11.974 11.6283 11.6234 11.979 11.1925 11.979H1.81398C1.38308 11.979 1.03244 11.6283 1.03244 11.1974V5.20562H11.974V11.1974Z" fill="white"/>
<path d="M12.4867 2.27386L12.0433 0.591473C11.9412 0.182459 11.5233 -0.0743991 11.1091 0.0193857L0.61248 2.50989C0.406153 2.55678 0.231601 2.68234 0.120622 2.86263C0.00964297 3.0429 -0.0231817 3.25547 0.0289128 3.4618L0.519721 5.4021C0.548906 5.51984 0.655196 5.59853 0.77189 5.59853C0.792723 5.59853 0.814093 5.59646 0.836489 5.59072C0.975603 5.55582 1.06001 5.41409 1.02457 5.27446L0.995923 5.16141L12.2923 2.59483C12.3611 2.57868 12.421 2.53594 12.4575 2.47552C12.4945 2.41507 12.5044 2.34212 12.4867 2.27386ZM0.868312 4.65599L0.533813 3.33519C0.516619 3.26642 0.528073 3.19556 0.564561 3.13512C0.601563 3.07521 0.659909 3.03352 0.730761 3.01684L11.2274 0.526874C11.2461 0.522185 11.2654 0.520109 11.2842 0.520109C11.4009 0.520109 11.5087 0.600339 11.5384 0.720696L11.9141 2.14571L0.868312 4.65599Z" fill="white"/>
<path d="M2.97273 4.71169C2.84351 4.64865 2.68825 4.69969 2.6226 4.8284L1.58054 6.9125C1.51645 7.04119 1.56855 7.1975 1.69726 7.26212C1.73528 7.28088 1.7749 7.28974 1.81398 7.28974C1.90932 7.28974 2.00154 7.23711 2.04739 7.14542L3.08945 5.06133C3.15353 4.93259 3.10142 4.77628 2.97273 4.71169Z" fill="white"/>
<path d="M5.57737 4.71169C5.44869 4.64865 5.29238 4.69969 5.22775 4.8284L4.18569 6.9125C4.1216 7.04119 4.1737 7.1975 4.30241 7.26212C4.34043 7.28088 4.38005 7.28974 4.41912 7.28974C4.51447 7.28974 4.60669 7.23711 4.65202 7.14542L5.69409 5.06133C5.75815 4.93259 5.70606 4.77628 5.57737 4.71169Z" fill="white"/>
<path d="M8.18248 4.71169C8.0543 4.64865 7.898 4.69969 7.83286 4.8284L6.7908 6.9125C6.72672 7.04119 6.77881 7.1975 6.90752 7.26212C6.94555 7.28088 6.98516 7.28974 7.02424 7.28974C7.11959 7.28974 7.21181 7.23711 7.25714 7.14542L8.29919 5.06133C8.36328 4.93259 8.31116 4.77628 8.18248 4.71169Z" fill="white"/>
<path d="M10.7876 4.71169C10.6584 4.64865 10.5031 4.69969 10.438 4.8284L9.39594 6.9125C9.33185 7.04119 9.38395 7.1975 9.51266 7.26212C9.55068 7.28088 9.5903 7.28974 9.62937 7.28974C9.72472 7.28974 9.81694 7.23711 9.86227 7.14542L10.9043 5.06133C10.9684 4.93259 10.9163 4.77628 10.7876 4.71169Z" fill="white"/>
<path d="M12.2345 6.7687H0.77192C0.628116 6.7687 0.511398 6.88542 0.511398 7.02922C0.511398 7.17302 0.628116 7.28974 0.77192 7.28974H12.2345C12.3788 7.28974 12.495 7.17302 12.495 7.02922C12.495 6.88542 12.3783 6.7687 12.2345 6.7687Z" fill="white"/>
<path d="M3.29108 4.22975L1.49667 2.43533C1.39507 2.33373 1.22989 2.33373 1.12829 2.43533C1.02669 2.53693 1.02669 2.7021 1.12829 2.80371L2.9227 4.59863C2.97377 4.64917 3.04045 4.67471 3.10715 4.67471C3.17385 4.67471 3.24052 4.64919 3.29108 4.59812C3.39268 4.4965 3.39268 4.33135 3.29108 4.22975Z" fill="white"/>
<path d="M5.83993 3.65087L4.04398 1.85645C3.94238 1.75485 3.77721 1.75485 3.67561 1.85645C3.57401 1.95805 3.57401 2.12322 3.67561 2.22482L5.47107 4.01924C5.52214 4.06977 5.58881 4.09532 5.65551 4.09532C5.72221 4.09532 5.78889 4.0698 5.83996 4.01924C5.94156 3.91764 5.94156 3.75247 5.83993 3.65087Z" fill="white"/>
<path d="M8.38674 3.07202L6.59388 1.27709C6.49228 1.17549 6.32711 1.17549 6.22551 1.27709C6.12391 1.37869 6.12391 1.54386 6.22551 1.64546L8.01837 3.44039C8.06944 3.49092 8.13611 3.51647 8.20281 3.51647C8.26951 3.51647 8.33619 3.49146 8.38674 3.44039C8.48834 3.33879 8.48834 3.17362 8.38674 3.07202Z" fill="white"/>
<path d="M10.9325 2.49367L9.13908 0.698743C9.03748 0.597143 8.8723 0.597143 8.7707 0.698743C8.6691 0.800344 8.6691 0.965517 8.7707 1.06712L10.5641 2.86205C10.6151 2.91258 10.6818 2.93812 10.7485 2.93812C10.8152 2.93812 10.8819 2.9126 10.9324 2.86205C11.0341 2.76045 11.0341 2.59527 10.9325 2.49367Z" fill="white"/>
</g>
<defs>
<clipPath id="clip0">
<rect width="12.5" height="12.5" fill="white"/>
</clipPath>
</defs>
</svg>
