<svg width="13" height="14" viewBox="0 0 13 14" fill="none" xmlns="http://www.w3.org/2000/svg">
<path d="M11.2376 13.0304H1.94231C1.18008 13.0304 0.560547 12.4109 0.560547 11.6487V3.35824C0.560547 2.59601 1.18008 1.97656 1.94231 1.97656H11.2376C11.9998 1.97656 12.6193 2.59601 12.6193 3.35824V11.6487C12.6193 12.4109 11.9998 13.0304 11.2376 13.0304ZM1.94231 2.73024C1.59611 2.73024 1.31422 3.01204 1.31422 3.35824V11.6487C1.31422 11.9949 1.59611 12.2768 1.94231 12.2768H11.2376C11.5838 12.2768 11.8657 11.9949 11.8657 11.6487V3.35824C11.8657 3.01204 11.5838 2.73024 11.2376 2.73024H1.94231Z" fill="white"/>
<path d="M12.2425 5.74586H0.937384C0.729369 5.74586 0.560547 5.57704 0.560547 5.36902C0.560547 5.16101 0.729369 4.99219 0.937384 4.99219H12.2425C12.4505 4.99219 12.6193 5.16101 12.6193 5.36902C12.6193 5.57704 12.4505 5.74586 12.2425 5.74586Z" fill="white"/>
<path d="M3.45106 3.98735C3.24304 3.98735 3.07422 3.81853 3.07422 3.61052V1.34949C3.07422 1.14148 3.24304 0.972656 3.45106 0.972656C3.65907 0.972656 3.82789 1.14148 3.82789 1.34949V3.61052C3.82789 3.81853 3.65907 3.98735 3.45106 3.98735Z" fill="white"/>
<path d="M9.73035 3.98735C9.52234 3.98735 9.35352 3.81853 9.35352 3.61052V1.34949C9.35352 1.14148 9.52234 0.972656 9.73035 0.972656C9.93837 0.972656 10.1072 1.14148 10.1072 1.34949V3.61052C10.1072 3.81853 9.93837 3.98735 9.73035 3.98735Z" fill="white"/>
</svg>
