<svg width="13" height="12" viewBox="0 0 13 12" fill="none" xmlns="http://www.w3.org/2000/svg">
<path d="M6.56055 0C3.25221 0 0.560547 2.69166 0.560547 6C0.560547 9.30834 3.25221 12 6.56055 12C9.86889 12 12.5605 9.30834 12.5605 6C12.5605 2.69166 9.86889 0 6.56055 0ZM6.56055 11.25C3.66565 11.25 1.31055 8.8949 1.31055 6C1.31055 3.1051 3.66565 0.750003 6.56055 0.750003C9.45545 0.750003 11.8105 3.1051 11.8105 6C11.8105 8.8949 9.45545 11.25 6.56055 11.25Z" fill="white"/>
<path d="M6.93555 2.25H6.18555V6.15526L8.54541 8.51512L9.07568 7.98485L6.93555 5.84472V2.25Z" fill="white"/>
</svg>
