<svg width="15" height="15" viewBox="0 0 15 15" fill="none" xmlns="http://www.w3.org/2000/svg">
<g clip-path="url(#clip0)">
<path d="M13.2812 15H1.71879C0.770645 15 0 14.2294 0 13.2812V1.71879C0 0.770645 0.770645 0 1.71879 0H11.4112C12.0281 0 12.6324 0.250053 13.0681 0.686874L14.3131 1.93188C14.7562 2.37499 15 2.96379 15 3.58932V13.2812C15 14.2294 14.2294 15 13.2812 15V15ZM1.71879 0.9375C1.28815 0.9375 0.9375 1.28815 0.9375 1.71879V13.2812C0.9375 13.7119 1.28815 14.0625 1.71879 14.0625H13.2812C13.7119 14.0625 14.0625 13.7119 14.0625 13.2812V3.58932C14.0625 3.21373 13.9162 2.86068 13.6506 2.59495L12.4056 1.34995C12.1438 1.08753 11.7819 0.9375 11.4112 0.9375H1.71879Z" fill="white"/>
<path d="M9.53125 4.37496H2.96875C2.71 4.37496 2.5 4.16496 2.5 3.90621V0.46875C2.5 0.209999 2.71 0 2.96875 0C3.2275 0 3.4375 0.209999 3.4375 0.46875V3.43746H9.0625V0.46875C9.0625 0.209999 9.2725 0 9.53125 0C9.79 0 10 0.209999 10 0.46875V3.90621C10 4.16496 9.79 4.37496 9.53125 4.37496Z" fill="white"/>
<path d="M7.5 12.1875C5.94933 12.1875 4.6875 10.9257 4.6875 9.375C4.6875 7.82433 5.94933 6.5625 7.5 6.5625C9.05067 6.5625 10.3125 7.82433 10.3125 9.375C10.3125 10.9257 9.05067 12.1875 7.5 12.1875ZM7.5 7.5C6.46626 7.5 5.625 8.34126 5.625 9.375C5.625 10.4087 6.46626 11.25 7.5 11.25C8.53374 11.25 9.375 10.4087 9.375 9.375C9.375 8.34126 8.53374 7.5 7.5 7.5Z" fill="white"/>
</g>
<defs>
<clipPath id="clip0">
<rect width="15" height="15" fill="white"/>
</clipPath>
</defs>
</svg>
