<svg width="13" height="12" viewBox="0 0 13 12" fill="none" xmlns="http://www.w3.org/2000/svg">
<path d="M12.5413 8.72413L10.2803 6.83995C10.168 6.74574 10.0112 6.72689 9.87932 6.78794C9.74667 6.8505 9.66226 6.98314 9.66226 7.12936V8.25987H9.03144C8.50838 8.25987 8.03055 7.99457 7.7532 7.55141L5.3128 3.64738C4.75885 2.7603 3.80319 2.23047 2.75634 2.23047H0.618164V3.73782H2.75634C3.27939 3.73782 3.75722 4.00311 4.03457 4.44627L6.47497 8.35031C7.02967 9.23738 7.98533 9.76722 9.03144 9.76722H9.66226V10.8977C9.66226 11.0439 9.74667 11.1766 9.87932 11.2391C9.92982 11.2625 9.98483 11.2746 10.0391 11.2746C10.1258 11.2746 10.2117 11.2452 10.2803 11.1871L12.5413 9.30295C12.628 9.23136 12.677 9.12509 12.677 9.01354C12.677 8.902 12.628 8.79573 12.5413 8.72413Z" fill="white"/>
<path d="M12.5416 2.69371L10.2806 0.809522C10.1683 0.716067 10.0115 0.696471 9.87963 0.758272C9.74698 0.81932 9.66257 0.95272 9.66257 1.09893V2.22945H9.03175C7.98489 2.22945 7.02923 2.75928 6.47528 3.64635L6.33887 3.86492L7.22745 5.2871L7.75351 4.44525C8.03087 4.00209 8.5087 3.7368 9.03175 3.7368H9.66257V4.86731C9.66257 5.01352 9.74698 5.14692 9.87963 5.20872C9.93013 5.23209 9.98515 5.24414 10.0394 5.24414C10.1261 5.24414 10.212 5.214 10.2806 5.15672L12.5416 3.27253C12.6283 3.20093 12.6773 3.09466 12.6773 2.98312C12.6773 2.87158 12.6283 2.76531 12.5416 2.69371Z" fill="white"/>
<path d="M4.56064 6.70703L4.03532 7.54889C3.75797 7.99205 3.27939 8.25734 2.75634 8.25734H0.618164V9.76469H2.75634C3.80244 9.76469 4.7581 9.23486 5.3128 8.34778L5.44922 8.12922L4.56064 6.70703Z" fill="white"/>
</svg>
