<svg width="15" height="18" viewBox="0 0 15 18" fill="none" xmlns="http://www.w3.org/2000/svg">
<path d="M9.79752 3.91406C9.56468 3.91406 9.37598 4.10277 9.37598 4.33561V12.3028C9.37598 12.5355 9.56468 12.7244 9.79752 12.7244C10.0304 12.7244 10.2191 12.5355 10.2191 12.3028V4.33561C10.2191 4.10277 10.0304 3.91406 9.79752 3.91406Z" fill="white"/>
<path d="M4.82194 3.91406C4.5891 3.91406 4.40039 4.10277 4.40039 4.33561V12.3028C4.40039 12.5355 4.5891 12.7244 4.82194 12.7244C5.05478 12.7244 5.24348 12.5355 5.24348 12.3028V4.33561C5.24348 4.10277 5.05478 3.91406 4.82194 3.91406Z" fill="white"/>
<path d="M1.19726 5.35877V15.7447C1.19726 16.3586 1.42235 16.9351 1.81558 17.3487C2.20699 17.7635 2.7517 17.999 3.32177 18H11.2975C11.8678 17.999 12.4125 17.7635 12.8037 17.3487C13.1969 16.9351 13.422 16.3586 13.422 15.7447V5.35877C14.2037 5.15129 14.7102 4.39614 14.6057 3.59405C14.5009 2.79213 13.8177 2.19225 13.0089 2.19209H10.8506V1.66516C10.8531 1.22204 10.6779 0.796544 10.3642 0.483514C10.0505 0.170649 9.62436 -0.00356726 9.18124 5.53875e-05H5.43806C4.99494 -0.00356726 4.56879 0.170649 4.2551 0.483514C3.94141 0.796544 3.76621 1.22204 3.76868 1.66516V2.19209H1.6104C0.801563 2.19225 0.118365 2.79213 0.0136372 3.59405C-0.0909256 4.39614 0.415586 5.15129 1.19726 5.35877ZM11.2975 17.1569H3.32177C2.60103 17.1569 2.04034 16.5378 2.04034 15.7447V5.39582H12.579V15.7447C12.579 16.5378 12.0183 17.1569 11.2975 17.1569ZM4.61177 1.66516C4.60897 1.44566 4.69525 1.23439 4.85102 1.07944C5.00663 0.924489 5.21839 0.839357 5.43806 0.843144H9.18124C9.40091 0.839357 9.61267 0.924489 9.76827 1.07944C9.92405 1.23423 10.0103 1.44566 10.0075 1.66516V2.19209H4.61177V1.66516ZM1.6104 3.03517H13.0089C13.428 3.03517 13.7677 3.37488 13.7677 3.79395C13.7677 4.21303 13.428 4.55273 13.0089 4.55273H1.6104C1.19133 4.55273 0.851621 4.21303 0.851621 3.79395C0.851621 3.37488 1.19133 3.03517 1.6104 3.03517Z" fill="white"/>
<path d="M7.30924 3.91406C7.0764 3.91406 6.8877 4.10277 6.8877 4.33561V12.3028C6.8877 12.5355 7.0764 12.7244 7.30924 12.7244C7.54208 12.7244 7.73078 12.5355 7.73078 12.3028V4.33561C7.73078 4.10277 7.54208 3.91406 7.30924 3.91406Z" fill="white"/>
</svg>
