<svg width="496" height="496" viewBox="0 0 496 496" fill="none" xmlns="http://www.w3.org/2000/svg">
<g clip-path="url(#clip0)">
<rect x="109" y="134" width="275" height="259" fill="white"/>
<path d="M455.876 128L395.077 100.954L368.008 40.1319L301.842 47.0418L248.011 8.00391L194.15 47.0418L128.015 40.1319L100.965 100.927L40.1426 128L47.0565 194.166L8.01855 247.997L47.0565 301.859L40.1426 367.993L100.942 395.039L128.015 455.862L194.181 448.952L248.011 487.99L301.873 448.952L368.008 455.862L395.054 395.063L455.876 367.993L448.963 301.827L488.004 247.997L448.963 194.135L455.876 128ZM200.013 343.994L132.093 276.074L154.733 253.516L200.013 298.714L335.767 162.96L358.407 185.596L200.013 343.994Z" fill="#57A4FF"/>
<path d="M494.484 243.301L457.236 191.916L463.837 128.809C464.196 125.36 462.298 122.075 459.13 120.664L401.151 94.8644L375.351 36.8817C373.933 33.7217 370.652 31.8272 367.207 32.1709L304.088 38.7684L252.706 1.52339C249.906 -0.507797 246.117 -0.507797 243.316 1.52339L191.931 38.7684L128.816 32.1709C125.374 31.8428 122.105 33.7334 120.671 36.8739L94.8712 94.8566L36.8886 120.664C33.7246 122.071 31.8262 125.356 32.1856 128.801L38.783 191.916L1.53804 243.301C-0.493149 246.102 -0.493149 249.891 1.53804 252.692L38.783 304.073L32.1856 367.192C31.8223 370.638 33.7207 373.926 36.8886 375.337L94.8712 401.137L120.671 459.119C122.097 462.268 125.37 464.162 128.816 463.83L191.931 457.229L243.316 494.478C246.117 496.509 249.906 496.509 252.706 494.478L304.088 457.229L367.207 463.83C370.652 464.178 373.929 462.283 375.351 459.127L401.151 401.144L459.13 375.337C462.294 373.926 464.192 370.645 463.837 367.2L457.236 304.081L494.484 252.7C496.52 249.899 496.52 246.102 494.484 243.301ZM442.486 297.163C441.326 298.761 440.799 300.729 441.006 302.69L447.31 363.071L391.831 387.77C390.019 388.567 388.566 390.012 387.765 391.824L363.086 447.303L302.689 440.991C300.728 440.788 298.764 441.319 297.17 442.479L248.011 478.111L198.845 442.479C197.481 441.483 195.841 440.948 194.157 440.952C193.876 440.952 193.595 440.952 193.357 440.991L132.956 447.303L108.277 391.824C107.472 390.012 106.027 388.563 104.215 387.758L48.7046 363.071L55.0091 302.69C55.2122 300.729 54.6849 298.761 53.5287 297.163L17.8969 247.997L53.5287 198.83C54.6849 197.232 55.2122 195.264 55.0091 193.303L48.7046 132.918L104.183 108.223C105.996 107.427 107.445 105.981 108.246 104.169L132.925 48.69L193.325 55.0023C195.282 55.1976 197.247 54.6664 198.845 53.514L248.011 17.8823L297.178 53.514C298.771 54.6703 300.736 55.1976 302.697 55.0023L363.094 48.69L387.773 104.169C388.577 105.981 390.027 107.427 391.839 108.231L447.318 132.918L441.013 193.303C440.806 195.264 441.334 197.232 442.494 198.83L478.122 247.997L442.486 297.163Z" fill="#57A4FF"/>
</g>
<defs>
<clipPath id="clip0">
<rect width="496" height="496" fill="white"/>
</clipPath>
</defs>
</svg>
