<svg xmlns="http://www.w3.org/2000/svg" width="68" height="15" viewBox="0 0 68 15" fill="none">
<path d="M12.3939 0H3.59797C2.01281 0 0.727783 1.31715 0.727783 2.94194V11.9578C0.727783 13.5826 2.01281 14.8997 3.59797 14.8997H12.3939C13.9791 14.8997 15.2641 13.5826 15.2641 11.9578V2.94194C15.2641 1.31715 13.9791 0 12.3939 0Z" fill="#fff"/>
<path d="M4.15488 10.8363L3.41553 4.07037H5.43642L5.74202 7.79164L7.52632 4.07037H9.08388L9.53735 7.79164L11.1935 4.07037H13.3721L10.2077 10.8363H8.26567L7.83192 7.22137L6.09691 10.8363H4.15488Z" fill="black"/>
<path d="M29.3714 4.52116H32.1149L30.0749 11.7963H27.4298L26.5575 8.37698L25.6852 11.7963H23.0401L21 4.52116H23.7436L24.5596 8.55159L25.5726 4.52116H27.5423L28.5554 8.55159L29.3714 4.52116Z" fill="#fff"/>
<path d="M34.9245 9.0754C35.1496 9.56041 35.6279 9.80291 36.3596 9.80291C36.791 9.80291 37.1897 9.64771 37.5555 9.3373L39.2579 10.8214C38.5544 11.6071 37.5602 12 36.2751 12C35.0745 12 34.1084 11.6411 33.3768 10.9233C32.6546 10.1958 32.2935 9.28395 32.2935 8.18783C32.2935 7.08201 32.6452 6.16049 33.3487 5.42328C34.0615 4.68607 34.9573 4.31746 36.036 4.31746C37.1052 4.31746 37.9822 4.68122 38.667 5.40873C39.3611 6.12654 39.7081 7.03351 39.7081 8.12963C39.7081 8.44974 39.6706 8.76499 39.5956 9.0754H34.9245ZM34.8823 7.34392H37.2459C37.0865 6.76191 36.7066 6.4709 36.1063 6.4709C35.4966 6.4709 35.0886 6.76191 34.8823 7.34392Z" fill="#fff"/>
<path d="M44.9641 4.31746C45.9114 4.31746 46.6853 4.68122 47.2856 5.40873C47.8859 6.13624 48.186 7.05291 48.186 8.15873C48.186 9.26455 47.8859 10.1812 47.2856 10.9087C46.6853 11.6362 45.9114 12 44.9641 12C44.1574 12 43.529 11.7138 43.0788 11.1415V11.7963H40.4759V1.61111H43.0788V5.17593C43.529 4.60362 44.1574 4.31746 44.9641 4.31746ZM43.4164 9.1336C43.6509 9.3955 43.9558 9.52646 44.3309 9.52646C44.7061 9.52646 45.0063 9.3955 45.2314 9.1336C45.4659 8.87169 45.5831 8.54674 45.5831 8.15873C45.5831 7.77072 45.4659 7.44577 45.2314 7.18386C45.0063 6.92196 44.7061 6.79101 44.3309 6.79101C43.9558 6.79101 43.6509 6.92196 43.4164 7.18386C43.1913 7.44577 43.0788 7.77072 43.0788 8.15873C43.0788 8.54674 43.1913 8.87169 43.4164 9.1336Z" fill="#fff"/>
<path d="M50.3168 3.96825C49.9228 3.96825 49.5805 3.82275 49.2897 3.53175C49.0083 3.23104 48.8676 2.88183 48.8676 2.48413C48.8676 2.08642 49.0083 1.74206 49.2897 1.45106C49.5805 1.15035 49.9228 1 50.3168 1C50.7013 1 51.0343 1.15035 51.3157 1.45106C51.6065 1.74206 51.7519 2.08642 51.7519 2.48413C51.7519 2.88183 51.6065 3.23104 51.3157 3.53175C51.0343 3.82275 50.7013 3.96825 50.3168 3.96825ZM49.0083 11.7963V4.52116H51.6112V11.7963H49.0083Z" fill="#fff"/>
<path d="M57.22 4.31746C57.9891 4.31746 58.6035 4.59392 59.0631 5.14683C59.5321 5.69003 59.7666 6.50485 59.7666 7.59127V11.7963H57.1637V7.88227C57.1637 7.23236 56.8729 6.90741 56.2914 6.90741C55.9819 6.90741 55.7427 7.00926 55.5738 7.21296C55.4144 7.41667 55.3347 7.69797 55.3347 8.05688V11.7963H52.7318V4.52116H55.3347V5.23413C55.7661 4.62302 56.3946 4.31746 57.22 4.31746Z" fill="#fff"/>
<path d="M68 11.7963H65.1157L63.4274 8.88624V11.7963H60.8245V1.61111H63.4274V7.34392L64.9047 4.52116H67.8593L65.7207 8.15873L68 11.7963Z" fill="#fff"/>
</svg>